<svg width="54" height="48" viewBox="0 0 54 48" fill="none" xmlns="http://www.w3.org/2000/svg">
<path d="M17.6416 25.2826L21.2912 11.837L30.6367 5.74636H32.5354L42.0267 0V1.83862L33.1832 7.0102L44.5086 2.52817L48.5969 2.64342L45.8228 5.28634L34.287 8.96359L47.575 6.55067L52.5394 6.66543L48.1589 8.50405L36.3314 10.5727L48.5969 10.3432L54 11.607L48.5969 13.3309L37.4998 12.6413L46.4067 14.4804L48.8892 16.5491L45.3847 16.8938L38.3759 14.8247L45.2383 18.1577L46.4067 20.3416L39.69 20.6863L41.4423 21.9394L42.0267 24.2488L39.8359 25.2826L40.5662 27.2365L38.8139 28.0413L38.9598 29.4204H35.8202V30.9147H33.1832L34.1412 32.0638L30.1993 31.6043L34.1412 33.5572L37.2082 35.2815L48.5969 36.0858L50.2033 37.6944L48.5969 38.6145L40.5662 36.6611L49.473 39.534L50.7872 40.7979H47.1363L40.5662 38.6145L48.4511 41.6022L49.473 42.9822L47.1363 43.5556L35.1637 39.0745L31.5128 38.8445L33.9954 42.2917L31.6593 41.7174L33.1832 43.5556L25.0885 42.9822L22.1679 41.1426L21.7299 39.0745L19.539 34.3615L11.5082 30.109L13.5601 30.1417L11.5082 28.6092L14.34 28.4564L12.393 27.6135L14.2426 27.3835L12.5878 26.4639L14.8265 25.9277L12.9769 24.6248L17.6416 25.2826Z" fill="black"/>
<path d="M17.7048 23.228L7.76242 20.6848L6.46892 17.7778L4.42615 19.8546V21.4113L10.4184 23.9029L17.2954 24.8889L17.7048 23.228Z" fill="black"/>
<path d="M26.5574 44.6634L24.6828 45.7586V46.7557L24.9943 47.5023L23.4326 46.9542V45.66L22.4169 46.9047L22.9636 47.9999L21.2459 46.6057L23.1204 44.6634L24.4476 44.4443L26.5574 44.6634Z" fill="black"/>
<path d="M22.1311 44.4443L20.7842 45.0046L20.3606 46.1722L21.2778 47.111L20.7842 46.1789L22.1311 44.4443Z" fill="black"/>
<path d="M22.1311 43.5549L20.167 44.7857L19.7798 45.5088L19.1165 45.7029L19.9327 44.2934L18.5483 44.7956L18.1892 46.2221L17.7189 45.4985L18.5214 44.0202L17.4697 44.7335L17.3597 45.85L16.8196 44.8885L18.1061 43.3896H20.4855L21.2191 42.6665L22.1311 43.5549Z" fill="black"/>
<path d="M0.514134 27.0748L1.67467 26.1377H3.54336L3.6087 25.6169L5.54272 24.8887H11.3041L13.2788 26.1899L10.1843 26.5028L12.9565 27.5553L9.92663 28.011L12.7636 28.7914H10.1843L11.9901 30.222H10.1534L2.9973 28.4273H1.16004L0.000120163 28.9735L0.514134 27.0748ZM5.2851 26.8097C5.55012 26.8097 5.7646 26.6361 5.7646 26.4227C5.7646 26.2083 5.5495 26.0352 5.2851 26.0352C5.01946 26.0352 4.80436 26.2088 4.80436 26.4227C4.80436 26.6361 5.02008 26.8097 5.2851 26.8097Z" fill="black"/>
</svg>
